<svg xmlns="http://www.w3.org/2000/svg" width="800" height="500" viewBox="0 0 800 500">
  <rect width="800" height="500" fill="#ffffff" />
  <text x="70" y="24" font-size="16" font-family="Arial, sans-serif" fill="#0f172a">baseline First-Stage Residuals</text>
  <line x1="70" y1="430" x2="740" y2="430" stroke="#334155" />
  <line x1="70" y1="35" x2="70" y2="430" stroke="#334155" />
  <line x1="70" y1="210.64" x2="740" y2="210.64" stroke="#64748b" stroke-dasharray="4 4" />
  <polyline points="70.00,203.33 80.15,186.10 90.30,222.68 100.45,189.06 110.61,229.09 120.76,206.33 130.91,204.89 141.06,213.80 151.21,213.99 161.36,296.95 171.52,166.01 181.67,245.96 191.82,73.23 201.97,391.77 212.12,182.73 222.27,247.38 232.42,188.87 242.58,200.80 252.73,200.80 262.88,261.91 273.03,211.65 283.18,166.14 293.33,236.12 303.48,169.60 313.64,179.68 323.79,115.02 333.94,169.37 344.09,186.95 354.24,220.06 364.39,256.40 374.55,247.98 384.70,233.21 394.85,226.28 405.00,245.26 415.15,215.45 425.30,262.10 435.45,240.41 445.61,170.41 455.76,184.50 465.91,219.81 476.06,194.09 486.21,177.26 496.36,181.56 506.52,143.10 516.67,211.16 526.82,186.87 536.97,145.43 547.12,184.33 557.27,210.55 567.42,224.95 577.58,242.92 587.73,212.40 597.88,281.09 608.03,269.04 618.18,294.73 628.33,261.76 638.48,294.35 648.64,279.24 658.79,126.78 668.94,160.21 679.09,158.93 689.24,209.12 699.39,177.31 709.55,117.07 719.70,176.84 729.85,262.19 740.00,247.82" fill="none" stroke="#1d4ed8" stroke-width="2.5" />
  <text x="16" y="240" text-anchor="middle" transform="rotate(-90 16 240)" font-size="12" font-family="Arial, sans-serif" fill="#334155">Residual</text>
</svg>
