<svg xmlns="http://www.w3.org/2000/svg" width="800" height="500" viewBox="0 0 800 500">
  <rect width="800" height="500" fill="#ffffff" />
  <text x="70" y="24" font-size="16" font-family="Arial, sans-serif" fill="#0f172a">robustness First-Stage Residuals</text>
  <line x1="70" y1="430" x2="740" y2="430" stroke="#334155" />
  <line x1="70" y1="35" x2="70" y2="430" stroke="#334155" />
  <line x1="70" y1="217.99" x2="740" y2="217.99" stroke="#64748b" stroke-dasharray="4 4" />
  <polyline points="70.00,200.49 78.38,199.02 86.75,224.97 95.12,203.68 103.50,231.20 111.88,222.95 120.25,214.77 128.62,208.08 137.00,211.41 145.38,278.87 153.75,186.98 162.12,236.89 170.50,73.23 178.88,391.77 187.25,194.56 195.62,235.95 204.00,215.30 212.38,218.62 220.75,213.47 229.12,282.27 237.50,235.82 245.88,200.94 254.25,242.32 262.62,175.76 271.00,216.43 279.38,131.52 287.75,186.17 296.12,206.34 304.50,199.47 312.88,248.76 321.25,224.31 329.62,225.87 338.00,221.54 346.38,233.45 354.75,225.65 363.12,275.55 371.50,224.31 379.88,197.48 388.25,225.38 396.62,215.16 405.00,190.14 413.38,218.91 421.75,256.60 430.12,187.20 438.50,218.21 446.88,202.47 455.25,176.41 463.62,193.12 472.00,200.74 480.38,244.94 488.75,260.03 497.12,210.47 505.50,243.44 513.88,258.85 522.25,295.41 530.62,250.05 539.00,263.13 547.38,267.16 555.75,130.14 564.12,125.98 572.50,103.12 580.88,273.20 589.25,161.87 597.62,148.36 606.00,219.21 614.38,261.32 622.75,216.15 631.12,206.45 639.50,317.70 647.88,230.17 656.25,238.29 664.62,275.73 673.00,203.29 681.38,201.04 689.75,252.77 698.12,183.67 706.50,194.95 714.88,188.96 723.25,215.40 731.62,232.08 740.00,183.07" fill="none" stroke="#1d4ed8" stroke-width="2.5" />
  <text x="16" y="240" text-anchor="middle" transform="rotate(-90 16 240)" font-size="12" font-family="Arial, sans-serif" fill="#334155">Residual</text>
</svg>
