<svg xmlns="http://www.w3.org/2000/svg" width="800" height="500" viewBox="0 0 800 500">
  <rect width="800" height="500" fill="#ffffff" />
  <text x="70" y="24" font-size="16" font-family="Arial, sans-serif" fill="#0f172a">LP-IV IRF: ln_compensation_ea20_real</text>
  <line x1="70" y1="430" x2="740" y2="430" stroke="#334155" />
  <line x1="70" y1="35" x2="70" y2="430" stroke="#334155" />
  <line x1="70" y1="191.58" x2="740" y2="191.58" stroke="#64748b" stroke-dasharray="4 4" />
  <polygon points="70.00,200.84 125.83,73.23 181.67,167.85 293.33,177.84 516.67,254.13 740.00,254.09 740.00,391.77 516.67,343.01 293.33,259.84 181.67,212.12 125.83,153.00 70.00,326.00" fill="#94a3b8" opacity="0.28" />
  <polyline points="70.00,263.42 125.83,113.11 181.67,189.99 293.33,218.84 516.67,298.57 740.00,322.93" fill="none" stroke="#0f766e" stroke-width="3" />
  <line x1="70.00" y1="430" x2="70.00" y2="436" stroke="#334155" /><text x="70.00" y="455" text-anchor="middle" font-size="12" fill="#334155">0</text><line x1="125.83" y1="430" x2="125.83" y2="436" stroke="#334155" /><text x="125.83" y="455" text-anchor="middle" font-size="12" fill="#334155">1</text><line x1="181.67" y1="430" x2="181.67" y2="436" stroke="#334155" /><text x="181.67" y="455" text-anchor="middle" font-size="12" fill="#334155">2</text><line x1="293.33" y1="430" x2="293.33" y2="436" stroke="#334155" /><text x="293.33" y="455" text-anchor="middle" font-size="12" fill="#334155">4</text><line x1="516.67" y1="430" x2="516.67" y2="436" stroke="#334155" /><text x="516.67" y="455" text-anchor="middle" font-size="12" fill="#334155">8</text><line x1="740.00" y1="430" x2="740.00" y2="436" stroke="#334155" /><text x="740.00" y="455" text-anchor="middle" font-size="12" fill="#334155">12</text>
  <text x="405" y="485" text-anchor="middle" font-size="12" font-family="Arial, sans-serif" fill="#334155">Horizon</text>
  <text x="16" y="240" text-anchor="middle" transform="rotate(-90 16 240)" font-size="12" font-family="Arial, sans-serif" fill="#334155">Response</text>
</svg>
