<svg xmlns="http://www.w3.org/2000/svg" width="800" height="500" viewBox="0 0 800 500">
  <rect width="800" height="500" fill="#ffffff" />
  <text x="70" y="24" font-size="16" font-family="Arial, sans-serif" fill="#0f172a">LP-IV IRF: ln_hh_loans_ea_stock</text>
  <line x1="70" y1="430" x2="740" y2="430" stroke="#334155" />
  <line x1="70" y1="35" x2="70" y2="430" stroke="#334155" />
  <line x1="70" y1="145.22" x2="740" y2="145.22" stroke="#64748b" stroke-dasharray="4 4" />
  <polygon points="70.00,114.78 111.88,134.71 153.75,119.02 237.50,103.15 405.00,73.23 572.50,86.05 740.00,170.92 740.00,327.48 572.50,347.87 405.00,391.77 237.50,299.45 153.75,221.69 111.88,212.00 70.00,164.55" fill="#94a3b8" opacity="0.28" />
  <polyline points="70.00,139.66 111.88,173.36 153.75,170.35 237.50,201.30 405.00,232.50 572.50,216.96 740.00,249.20" fill="none" stroke="#0f766e" stroke-width="3" />
  <line x1="70.00" y1="430" x2="70.00" y2="436" stroke="#334155" /><text x="70.00" y="455" text-anchor="middle" font-size="12" fill="#334155">0</text><line x1="111.88" y1="430" x2="111.88" y2="436" stroke="#334155" /><text x="111.88" y="455" text-anchor="middle" font-size="12" fill="#334155">1</text><line x1="153.75" y1="430" x2="153.75" y2="436" stroke="#334155" /><text x="153.75" y="455" text-anchor="middle" font-size="12" fill="#334155">2</text><line x1="237.50" y1="430" x2="237.50" y2="436" stroke="#334155" /><text x="237.50" y="455" text-anchor="middle" font-size="12" fill="#334155">4</text><line x1="405.00" y1="430" x2="405.00" y2="436" stroke="#334155" /><text x="405.00" y="455" text-anchor="middle" font-size="12" fill="#334155">8</text><line x1="572.50" y1="430" x2="572.50" y2="436" stroke="#334155" /><text x="572.50" y="455" text-anchor="middle" font-size="12" fill="#334155">12</text><line x1="740.00" y1="430" x2="740.00" y2="436" stroke="#334155" /><text x="740.00" y="455" text-anchor="middle" font-size="12" fill="#334155">16</text>
  <text x="405" y="485" text-anchor="middle" font-size="12" font-family="Arial, sans-serif" fill="#334155">Horizon</text>
  <text x="16" y="240" text-anchor="middle" transform="rotate(-90 16 240)" font-size="12" font-family="Arial, sans-serif" fill="#334155">Response</text>
</svg>
