<svg xmlns="http://www.w3.org/2000/svg" width="800" height="500" viewBox="0 0 800 500">
  <rect width="800" height="500" fill="#ffffff" />
  <text x="70" y="24" font-size="16" font-family="Arial, sans-serif" fill="#0f172a">LP-IV IRF: ln_dax_real_de</text>
  <line x1="70" y1="430" x2="740" y2="430" stroke="#334155" />
  <line x1="70" y1="35" x2="70" y2="430" stroke="#334155" />
  <line x1="70" y1="192.64" x2="740" y2="192.64" stroke="#64748b" stroke-dasharray="4 4" />
  <polygon points="70.00,142.44 111.88,152.84 153.75,124.72 237.50,121.12 405.00,171.09 572.50,153.01 740.00,73.23 740.00,254.89 572.50,256.61 405.00,377.56 237.50,391.77 153.75,341.29 111.88,359.39 70.00,290.43" fill="#94a3b8" opacity="0.28" />
  <polyline points="70.00,216.43 111.88,256.11 153.75,233.00 237.50,256.45 405.00,274.33 572.50,204.81 740.00,164.06" fill="none" stroke="#0f766e" stroke-width="3" />
  <line x1="70.00" y1="430" x2="70.00" y2="436" stroke="#334155" /><text x="70.00" y="455" text-anchor="middle" font-size="12" fill="#334155">0</text><line x1="111.88" y1="430" x2="111.88" y2="436" stroke="#334155" /><text x="111.88" y="455" text-anchor="middle" font-size="12" fill="#334155">1</text><line x1="153.75" y1="430" x2="153.75" y2="436" stroke="#334155" /><text x="153.75" y="455" text-anchor="middle" font-size="12" fill="#334155">2</text><line x1="237.50" y1="430" x2="237.50" y2="436" stroke="#334155" /><text x="237.50" y="455" text-anchor="middle" font-size="12" fill="#334155">4</text><line x1="405.00" y1="430" x2="405.00" y2="436" stroke="#334155" /><text x="405.00" y="455" text-anchor="middle" font-size="12" fill="#334155">8</text><line x1="572.50" y1="430" x2="572.50" y2="436" stroke="#334155" /><text x="572.50" y="455" text-anchor="middle" font-size="12" fill="#334155">12</text><line x1="740.00" y1="430" x2="740.00" y2="436" stroke="#334155" /><text x="740.00" y="455" text-anchor="middle" font-size="12" fill="#334155">16</text>
  <text x="405" y="485" text-anchor="middle" font-size="12" font-family="Arial, sans-serif" fill="#334155">Horizon</text>
  <text x="16" y="240" text-anchor="middle" transform="rotate(-90 16 240)" font-size="12" font-family="Arial, sans-serif" fill="#334155">Response</text>
</svg>
