<svg xmlns="http://www.w3.org/2000/svg" width="800" height="500" viewBox="0 0 800 500">
  <rect width="800" height="500" fill="#ffffff" />
  <text x="70" y="24" font-size="16" font-family="Arial, sans-serif" fill="#0f172a">LP-IV IRF: ln_nfc_loans_ea_stock</text>
  <line x1="70" y1="430" x2="740" y2="430" stroke="#334155" />
  <line x1="70" y1="35" x2="70" y2="430" stroke="#334155" />
  <line x1="70" y1="100.37" x2="740" y2="100.37" stroke="#64748b" stroke-dasharray="4 4" />
  <polygon points="70.00,73.27 111.88,88.90 153.75,73.23 237.50,108.76 405.00,141.71 572.50,156.18 740.00,162.92 740.00,308.06 572.50,391.77 405.00,327.11 237.50,222.35 153.75,142.78 111.88,152.95 70.00,117.50" fill="#94a3b8" opacity="0.28" />
  <polyline points="70.00,95.38 111.88,120.93 153.75,108.00 237.50,165.55 405.00,234.41 572.50,273.98 740.00,235.49" fill="none" stroke="#0f766e" stroke-width="3" />
  <line x1="70.00" y1="430" x2="70.00" y2="436" stroke="#334155" /><text x="70.00" y="455" text-anchor="middle" font-size="12" fill="#334155">0</text><line x1="111.88" y1="430" x2="111.88" y2="436" stroke="#334155" /><text x="111.88" y="455" text-anchor="middle" font-size="12" fill="#334155">1</text><line x1="153.75" y1="430" x2="153.75" y2="436" stroke="#334155" /><text x="153.75" y="455" text-anchor="middle" font-size="12" fill="#334155">2</text><line x1="237.50" y1="430" x2="237.50" y2="436" stroke="#334155" /><text x="237.50" y="455" text-anchor="middle" font-size="12" fill="#334155">4</text><line x1="405.00" y1="430" x2="405.00" y2="436" stroke="#334155" /><text x="405.00" y="455" text-anchor="middle" font-size="12" fill="#334155">8</text><line x1="572.50" y1="430" x2="572.50" y2="436" stroke="#334155" /><text x="572.50" y="455" text-anchor="middle" font-size="12" fill="#334155">12</text><line x1="740.00" y1="430" x2="740.00" y2="436" stroke="#334155" /><text x="740.00" y="455" text-anchor="middle" font-size="12" fill="#334155">16</text>
  <text x="405" y="485" text-anchor="middle" font-size="12" font-family="Arial, sans-serif" fill="#334155">Horizon</text>
  <text x="16" y="240" text-anchor="middle" transform="rotate(-90 16 240)" font-size="12" font-family="Arial, sans-serif" fill="#334155">Response</text>
</svg>
