<svg xmlns="http://www.w3.org/2000/svg" width="760" height="430" viewBox="0 0 760 430">
  <rect width="100%" height="100%" fill="#ffffff"/>
  <text x="72" y="26" font-family="Arial" font-size="18" font-weight="700">ECB assets: cumulative moving-block interval</text>
  <line x1="72" y1="44" x2="72" y2="366" stroke="#444"/>
  <line x1="72" y1="366" x2="726" y2="366" stroke="#444"/>
  <line x1="72" y1="131.5" x2="726" y2="131.5" stroke="#999" stroke-dasharray="5 5"/>
  <polygon points="72.0,131.1 99.2,121.2 153.8,111.8 235.5,94.3 399.0,78.5 726.0,66.2 726.0,343.8 399.0,277.8 235.5,219.8 153.8,190.3 99.2,167.9 72.0,151.0" fill="#8ec5ff" opacity="0.38"/>
  <polyline points="72.0,141.1 99.2,144.5 153.8,151.1 235.5,157.0 399.0,178.2 726.0,205.0" fill="none" stroke="#1f6feb" stroke-width="3"/>
  <text x="72.0" y="392" text-anchor="middle" font-size="12">0</text>
<text x="99.2" y="392" text-anchor="middle" font-size="12">1</text>
<text x="153.8" y="392" text-anchor="middle" font-size="12">3</text>
<text x="235.5" y="392" text-anchor="middle" font-size="12">6</text>
<text x="399.0" y="392" text-anchor="middle" font-size="12">12</text>
<text x="726.0" y="392" text-anchor="middle" font-size="12">24</text>
  <text x="380.0" y="418" text-anchor="middle" font-family="Arial" font-size="13">Horizon in months</text>
</svg>
