<svg xmlns="http://www.w3.org/2000/svg" width="760" height="430" viewBox="0 0 760 430">
  <rect width="100%" height="100%" fill="#ffffff"/>
  <text x="72" y="26" font-family="Arial" font-size="18" font-weight="700">employment expectations: cumulative moving-block interval</text>
  <line x1="72" y1="44" x2="72" y2="366" stroke="#444"/>
  <line x1="72" y1="366" x2="726" y2="366" stroke="#444"/>
  <line x1="72" y1="321.9" x2="726" y2="321.9" stroke="#999" stroke-dasharray="5 5"/>
  <polygon points="72.0,290.6 99.2,211.2 153.8,148.5 235.5,102.7 399.0,66.2 726.0,91.8 726.0,343.8 399.0,294.5 235.5,273.8 153.8,264.7 99.2,279.2 72.0,314.6" fill="#8ec5ff" opacity="0.38"/>
  <polyline points="72.0,302.6 99.2,245.2 153.8,206.6 235.5,188.2 399.0,180.4 726.0,217.8" fill="none" stroke="#1f6feb" stroke-width="3"/>
  <text x="72.0" y="392" text-anchor="middle" font-size="12">0</text>
<text x="99.2" y="392" text-anchor="middle" font-size="12">1</text>
<text x="153.8" y="392" text-anchor="middle" font-size="12">3</text>
<text x="235.5" y="392" text-anchor="middle" font-size="12">6</text>
<text x="399.0" y="392" text-anchor="middle" font-size="12">12</text>
<text x="726.0" y="392" text-anchor="middle" font-size="12">24</text>
  <text x="380.0" y="418" text-anchor="middle" font-family="Arial" font-size="13">Horizon in months</text>
</svg>
