<svg xmlns="http://www.w3.org/2000/svg" width="760" height="430" viewBox="0 0 760 430">
  <rect width="100%" height="100%" fill="#ffffff"/>
  <text x="72" y="26" font-family="Arial" font-size="18" font-weight="700">pure new house-purchase loans: cumulative moving-block interval</text>
  <line x1="72" y1="44" x2="72" y2="366" stroke="#444"/>
  <line x1="72" y1="366" x2="726" y2="366" stroke="#444"/>
  <line x1="72" y1="207.4" x2="726" y2="207.4" stroke="#999" stroke-dasharray="5 5"/>
  <polygon points="72.0,189.4 99.2,158.9 153.8,132.3 235.5,79.9 399.0,66.2 726.0,94.5 726.0,343.8 399.0,308.6 235.5,272.4 153.8,284.5 99.2,252.7 72.0,256.7" fill="#8ec5ff" opacity="0.38"/>
  <polyline points="72.0,223.1 99.2,205.8 153.8,208.4 235.5,176.2 399.0,187.4 726.0,219.2" fill="none" stroke="#1f6feb" stroke-width="3"/>
  <text x="72.0" y="392" text-anchor="middle" font-size="12">0</text>
<text x="99.2" y="392" text-anchor="middle" font-size="12">1</text>
<text x="153.8" y="392" text-anchor="middle" font-size="12">3</text>
<text x="235.5" y="392" text-anchor="middle" font-size="12">6</text>
<text x="399.0" y="392" text-anchor="middle" font-size="12">12</text>
<text x="726.0" y="392" text-anchor="middle" font-size="12">24</text>
  <text x="380.0" y="418" text-anchor="middle" font-family="Arial" font-size="13">Horizon in months</text>
</svg>
