<svg xmlns="http://www.w3.org/2000/svg" width="760" height="430" viewBox="0 0 760 430">
  <rect width="100%" height="100%" fill="#ffffff"/>
  <text x="72" y="26" font-family="Arial" font-size="18" font-weight="700">NFC lending spread: cumulative moving-block interval</text>
  <line x1="72" y1="44" x2="72" y2="366" stroke="#444"/>
  <line x1="72" y1="366" x2="726" y2="366" stroke="#444"/>
  <line x1="72" y1="325.5" x2="726" y2="325.5" stroke="#999" stroke-dasharray="5 5"/>
  <polygon points="72.0,307.5 99.2,262.2 153.8,235.0 235.5,190.9 399.0,116.5 726.0,66.2 726.0,343.8 399.0,312.3 235.5,331.5 153.8,336.8 99.2,326.2 72.0,339.9" fill="#8ec5ff" opacity="0.38"/>
  <polyline points="72.0,323.7 99.2,294.2 153.8,285.9 235.5,261.2 399.0,214.4 726.0,205.0" fill="none" stroke="#1f6feb" stroke-width="3"/>
  <text x="72.0" y="392" text-anchor="middle" font-size="12">0</text>
<text x="99.2" y="392" text-anchor="middle" font-size="12">1</text>
<text x="153.8" y="392" text-anchor="middle" font-size="12">3</text>
<text x="235.5" y="392" text-anchor="middle" font-size="12">6</text>
<text x="399.0" y="392" text-anchor="middle" font-size="12">12</text>
<text x="726.0" y="392" text-anchor="middle" font-size="12">24</text>
  <text x="380.0" y="418" text-anchor="middle" font-family="Arial" font-size="13">Horizon in months</text>
</svg>
