<svg xmlns="http://www.w3.org/2000/svg" width="760" height="440" viewBox="0 0 760 440">
  <rect width="100%" height="100%" fill="#ffffff"/>
  <text x="70" y="26" font-family="Arial" font-size="18" font-weight="700">NFC credit: response to 1 SD ECB target surprise</text>
  <line x1="70" y1="45" x2="70" y2="375" stroke="#444"/>
  <line x1="70" y1="375" x2="730" y2="375" stroke="#444"/>
  <line x1="70" y1="200.2" x2="730" y2="200.2" stroke="#999" stroke-dasharray="5 5"/>
  <polygon points="70.0,168.9 97.5,177.4 152.5,142.2 235.0,97.9 400.0,67.8 730.0,127.5 730.0,352.2 400.0,311.8 235.0,282.4 152.5,299.1 97.5,290.5 70.0,241.7" fill="#8ec5ff" opacity="0.35"/>
  <polyline points="70.0,205.3 97.5,233.9 152.5,220.6 235.0,190.1 400.0,189.8 730.0,239.9" fill="none" stroke="#1f6feb" stroke-width="3"/>
  <circle cx="70.0" cy="205.3" r="4" fill="#1f6feb" />
<circle cx="97.5" cy="233.9" r="4" fill="#1f6feb" />
<circle cx="152.5" cy="220.6" r="4" fill="#1f6feb" />
<circle cx="235.0" cy="190.1" r="4" fill="#1f6feb" />
<circle cx="400.0" cy="189.8" r="4" fill="#1f6feb" />
<circle cx="730.0" cy="239.9" r="4" fill="#1f6feb" />
  <text x="70.0" y="402" text-anchor="middle" font-size="12">0</text>
<text x="97.5" y="402" text-anchor="middle" font-size="12">1</text>
<text x="152.5" y="402" text-anchor="middle" font-size="12">3</text>
<text x="235.0" y="402" text-anchor="middle" font-size="12">6</text>
<text x="400.0" y="402" text-anchor="middle" font-size="12">12</text>
<text x="730.0" y="402" text-anchor="middle" font-size="12">24</text>
  <text x="380.0" y="428" text-anchor="middle" font-family="Arial" font-size="13">Horizon in months</text>
  <text x="18" y="220.0" transform="rotate(-90 18 220.0)" text-anchor="middle" font-family="Arial" font-size="13">Response, 1 SD shock</text>
</svg>
