<svg xmlns="http://www.w3.org/2000/svg" width="760" height="440" viewBox="0 0 760 440">
  <rect width="100%" height="100%" fill="#ffffff"/>
  <text x="70" y="26" font-family="Arial" font-size="18" font-weight="700">house-purchase lending growth: response to 1 SD ECB target surprise</text>
  <line x1="70" y1="45" x2="70" y2="375" stroke="#444"/>
  <line x1="70" y1="375" x2="730" y2="375" stroke="#444"/>
  <line x1="70" y1="190.8" x2="730" y2="190.8" stroke="#999" stroke-dasharray="5 5"/>
  <polygon points="70.0,144.3 97.5,137.4 152.5,83.7 235.0,67.8 400.0,72.7 730.0,170.1 730.0,352.2 400.0,199.1 235.0,148.2 152.5,148.7 97.5,184.5 70.0,183.7" fill="#8ec5ff" opacity="0.35"/>
  <polyline points="70.0,164.0 97.5,161.0 152.5,116.2 235.0,108.0 400.0,135.9 730.0,261.2" fill="none" stroke="#1f6feb" stroke-width="3"/>
  <circle cx="70.0" cy="164.0" r="4" fill="#1f6feb" />
<circle cx="97.5" cy="161.0" r="4" fill="#1f6feb" />
<circle cx="152.5" cy="116.2" r="4" fill="#1f6feb" />
<circle cx="235.0" cy="108.0" r="4" fill="#1f6feb" />
<circle cx="400.0" cy="135.9" r="4" fill="#1f6feb" />
<circle cx="730.0" cy="261.2" r="4" fill="#1f6feb" />
  <text x="70.0" y="402" text-anchor="middle" font-size="12">0</text>
<text x="97.5" y="402" text-anchor="middle" font-size="12">1</text>
<text x="152.5" y="402" text-anchor="middle" font-size="12">3</text>
<text x="235.0" y="402" text-anchor="middle" font-size="12">6</text>
<text x="400.0" y="402" text-anchor="middle" font-size="12">12</text>
<text x="730.0" y="402" text-anchor="middle" font-size="12">24</text>
  <text x="380.0" y="428" text-anchor="middle" font-family="Arial" font-size="13">Horizon in months</text>
  <text x="18" y="220.0" transform="rotate(-90 18 220.0)" text-anchor="middle" font-family="Arial" font-size="13">Response, 1 SD shock</text>
</svg>
