<svg xmlns="http://www.w3.org/2000/svg" width="760" height="440" viewBox="0 0 760 440">
  <rect width="100%" height="100%" fill="#ffffff"/>
  <text x="70" y="26" font-family="Arial" font-size="18" font-weight="700">pure new house-purchase loans: response to 1 SD ECB target surprise</text>
  <line x1="70" y1="45" x2="70" y2="375" stroke="#444"/>
  <line x1="70" y1="375" x2="730" y2="375" stroke="#444"/>
  <line x1="70" y1="168.0" x2="730" y2="168.0" stroke="#999" stroke-dasharray="5 5"/>
  <polygon points="70.0,135.1 97.5,92.0 152.5,112.2 235.0,67.8 400.0,118.2 730.0,134.8 730.0,352.2 400.0,224.3 235.0,171.8 152.5,217.0 97.5,182.3 70.0,235.0" fill="#8ec5ff" opacity="0.35"/>
  <polyline points="70.0,185.0 97.5,137.1 152.5,164.6 235.0,119.8 400.0,171.3 730.0,243.5" fill="none" stroke="#1f6feb" stroke-width="3"/>
  <circle cx="70.0" cy="185.0" r="4" fill="#1f6feb" />
<circle cx="97.5" cy="137.1" r="4" fill="#1f6feb" />
<circle cx="152.5" cy="164.6" r="4" fill="#1f6feb" />
<circle cx="235.0" cy="119.8" r="4" fill="#1f6feb" />
<circle cx="400.0" cy="171.3" r="4" fill="#1f6feb" />
<circle cx="730.0" cy="243.5" r="4" fill="#1f6feb" />
  <text x="70.0" y="402" text-anchor="middle" font-size="12">0</text>
<text x="97.5" y="402" text-anchor="middle" font-size="12">1</text>
<text x="152.5" y="402" text-anchor="middle" font-size="12">3</text>
<text x="235.0" y="402" text-anchor="middle" font-size="12">6</text>
<text x="400.0" y="402" text-anchor="middle" font-size="12">12</text>
<text x="730.0" y="402" text-anchor="middle" font-size="12">24</text>
  <text x="380.0" y="428" text-anchor="middle" font-family="Arial" font-size="13">Horizon in months</text>
  <text x="18" y="220.0" transform="rotate(-90 18 220.0)" text-anchor="middle" font-family="Arial" font-size="13">Response, 1 SD shock</text>
</svg>
