<svg xmlns="http://www.w3.org/2000/svg" width="880" height="786" viewBox="0 0 880 786">
  <rect width="100%" height="100%" fill="#ffffff"/>
  <text x="12" y="24" font-family="Arial" font-size="18" font-weight="700">Cumulative 90% Confidence Persistence</text>
  <text x="304.0" y="42" text-anchor="middle" font-family="Arial" font-size="11">h0_cum90</text>
<text x="396.0" y="42" text-anchor="middle" font-family="Arial" font-size="11">h1_cum90</text>
<text x="488.0" y="42" text-anchor="middle" font-family="Arial" font-size="11">h3_cum90</text>
<text x="580.0" y="42" text-anchor="middle" font-family="Arial" font-size="11">h6_cum90</text>
<text x="672.0" y="42" text-anchor="middle" font-family="Arial" font-size="11">h12_cum90</text>
<text x="764.0" y="42" text-anchor="middle" font-family="Arial" font-size="11">h24_cum90</text>
  <text x="12" y="80" font-family="Arial" font-size="12">house-purchase lending growth</text><rect x="260" y="58" width="88" height="30" fill="#4c78a8" stroke="#ffffff"/><text x="304.0" y="78" text-anchor="middle" font-family="Arial" font-size="10">90%</text><rect x="352" y="58" width="88" height="30" fill="#4c78a8" stroke="#ffffff"/><text x="396.0" y="78" text-anchor="middle" font-family="Arial" font-size="10">90%</text><rect x="444" y="58" width="88" height="30" fill="#4c78a8" stroke="#ffffff"/><text x="488.0" y="78" text-anchor="middle" font-family="Arial" font-size="10">90%</text><rect x="536" y="58" width="88" height="30" fill="#4c78a8" stroke="#ffffff"/><text x="580.0" y="78" text-anchor="middle" font-family="Arial" font-size="10">90%</text><rect x="628" y="58" width="88" height="30" fill="#4c78a8" stroke="#ffffff"/><text x="672.0" y="78" text-anchor="middle" font-family="Arial" font-size="10">90%</text><rect x="720" y="58" width="88" height="30" fill="#4c78a8" stroke="#ffffff"/><text x="764.0" y="78" text-anchor="middle" font-family="Arial" font-size="10">90%</text><text x="12" y="114" font-family="Arial" font-size="12">mortgage lending rate</text><rect x="260" y="92" width="88" height="30" fill="#eeeeee" stroke="#ffffff"/><text x="304.0" y="112" text-anchor="middle" font-family="Arial" font-size="10"></text><rect x="352" y="92" width="88" height="30" fill="#eeeeee" stroke="#ffffff"/><text x="396.0" y="112" text-anchor="middle" font-family="Arial" font-size="10"></text><rect x="444" y="92" width="88" height="30" fill="#eeeeee" stroke="#ffffff"/><text x="488.0" y="112" text-anchor="middle" font-family="Arial" font-size="10"></text><rect x="536" y="92" width="88" height="30" fill="#eeeeee" stroke="#ffffff"/><text x="580.0" y="112" text-anchor="middle" font-family="Arial" font-size="10"></text><rect x="628" y="92" width="88" height="30" fill="#eeeeee" stroke="#ffffff"/><text x="672.0" y="112" text-anchor="middle" font-family="Arial" font-size="10"></text><rect x="720" y="92" width="88" height="30" fill="#eeeeee" stroke="#ffffff"/><text x="764.0" y="112" text-anchor="middle" font-family="Arial" font-size="10"></text><text x="12" y="148" font-family="Arial" font-size="12">mortgage lending spread</text><rect x="260" y="126" width="88" height="30" fill="#eeeeee" stroke="#ffffff"/><text x="304.0" y="146" text-anchor="middle" font-family="Arial" font-size="10"></text><rect x="352" y="126" width="88" height="30" fill="#4c78a8" stroke="#ffffff"/><text x="396.0" y="146" text-anchor="middle" font-family="Arial" font-size="10">90%</text><rect x="444" y="126" width="88" height="30" fill="#4c78a8" stroke="#ffffff"/><text x="488.0" y="146" text-anchor="middle" font-family="Arial" font-size="10">90%</text><rect x="536" y="126" width="88" height="30" fill="#4c78a8" stroke="#ffffff"/><text x="580.0" y="146" text-anchor="middle" font-family="Arial" font-size="10">90%</text><rect x="628" y="126" width="88" height="30" fill="#4c78a8" stroke="#ffffff"/><text x="672.0" y="146" text-anchor="middle" font-family="Arial" font-size="10">90%</text><rect x="720" y="126" width="88" height="30" fill="#4c78a8" stroke="#ffffff"/><text x="764.0" y="146" text-anchor="middle" font-family="Arial" font-size="10">90%</text><text x="12" y="182" font-family="Arial" font-size="12">NFC lending rate</text><rect x="260" y="160" width="88" height="30" fill="#eeeeee" stroke="#ffffff"/><text x="304.0" y="180" text-anchor="middle" font-family="Arial" font-size="10"></text><rect x="352" y="160" width="88" height="30" fill="#eeeeee" stroke="#ffffff"/><text x="396.0" y="180" text-anchor="middle" font-family="Arial" font-size="10"></text><rect x="444" y="160" width="88" height="30" fill="#eeeeee" stroke="#ffffff"/><text x="488.0" y="180" text-anchor="middle" font-family="Arial" font-size="10"></text><rect x="536" y="160" width="88" height="30" fill="#eeeeee" stroke="#ffffff"/><text x="580.0" y="180" text-anchor="middle" font-family="Arial" font-size="10"></text><rect x="628" y="160" width="88" height="30" fill="#eeeeee" stroke="#ffffff"/><text x="672.0" y="180" text-anchor="middle" font-family="Arial" font-size="10"></text><rect x="720" y="160" width="88" height="30" fill="#eeeeee" stroke="#ffffff"/><text x="764.0" y="180" text-anchor="middle" font-family="Arial" font-size="10"></text><text x="12" y="216" font-family="Arial" font-size="12">NFC lending spread</text><rect x="260" y="194" width="88" height="30" fill="#eeeeee" stroke="#ffffff"/><text x="304.0" y="214" text-anchor="middle" font-family="Arial" font-size="10"></text><rect x="352" y="194" width="88" height="30" fill="#eeeeee" stroke="#ffffff"/><text x="396.0" y="214" text-anchor="middle" font-family="Arial" font-size="10"></text><rect x="444" y="194" width="88" height="30" fill="#eeeeee" stroke="#ffffff"/><text x="488.0" y="214" text-anchor="middle" font-family="Arial" font-size="10"></text><rect x="536" y="194" width="88" height="30" fill="#4c78a8" stroke="#ffffff"/><text x="580.0" y="214" text-anchor="middle" font-family="Arial" font-size="10">90%</text><rect x="628" y="194" width="88" height="30" fill="#4c78a8" stroke="#ffffff"/><text x="672.0" y="214" text-anchor="middle" font-family="Arial" font-size="10">90%</text><rect x="720" y="194" width="88" height="30" fill="#4c78a8" stroke="#ffffff"/><text x="764.0" y="214" text-anchor="middle" font-family="Arial" font-size="10">90%</text><text x="12" y="250" font-family="Arial" font-size="12">real wage tracker excl. one-offs</text><rect x="260" y="228" width="88" height="30" fill="#4c78a8" stroke="#ffffff"/><text x="304.0" y="248" text-anchor="middle" font-family="Arial" font-size="10">90%</text><rect x="352" y="228" width="88" height="30" fill="#eeeeee" stroke="#ffffff"/><text x="396.0" y="248" text-anchor="middle" font-family="Arial" font-size="10"></text><rect x="444" y="228" width="88" height="30" fill="#4c78a8" stroke="#ffffff"/><text x="488.0" y="248" text-anchor="middle" font-family="Arial" font-size="10">90%</text><rect x="536" y="228" width="88" height="30" fill="#4c78a8" stroke="#ffffff"/><text x="580.0" y="248" text-anchor="middle" font-family="Arial" font-size="10">90%</text><rect x="628" y="228" width="88" height="30" fill="#4c78a8" stroke="#ffffff"/><text x="672.0" y="248" text-anchor="middle" font-family="Arial" font-size="10">90%</text><rect x="720" y="228" width="88" height="30" fill="#eeeeee" stroke="#ffffff"/><text x="764.0" y="248" text-anchor="middle" font-family="Arial" font-size="10"></text><text x="12" y="284" font-family="Arial" font-size="12">real wage tracker excl. one-offs, 3m avg</text><rect x="260" y="262" width="88" height="30" fill="#eeeeee" stroke="#ffffff"/><text x="304.0" y="282" text-anchor="middle" font-family="Arial" font-size="10"></text><rect x="352" y="262" width="88" height="30" fill="#eeeeee" stroke="#ffffff"/><text x="396.0" y="282" text-anchor="middle" font-family="Arial" font-size="10"></text><rect x="444" y="262" width="88" height="30" fill="#eeeeee" stroke="#ffffff"/><text x="488.0" y="282" text-anchor="middle" font-family="Arial" font-size="10"></text><rect x="536" y="262" width="88" height="30" fill="#eeeeee" stroke="#ffffff"/><text x="580.0" y="282" text-anchor="middle" font-family="Arial" font-size="10"></text><rect x="628" y="262" width="88" height="30" fill="#eeeeee" stroke="#ffffff"/><text x="672.0" y="282" text-anchor="middle" font-family="Arial" font-size="10"></text><rect x="720" y="262" width="88" height="30" fill="#eeeeee" stroke="#ffffff"/><text x="764.0" y="282" text-anchor="middle" font-family="Arial" font-size="10"></text><text x="12" y="318" font-family="Arial" font-size="12">real wage tracker excl. one-offs, 3m momentum</text><rect x="260" y="296" width="88" height="30" fill="#eeeeee" stroke="#ffffff"/><text x="304.0" y="316" text-anchor="middle" font-family="Arial" font-size="10"></text><rect x="352" y="296" width="88" height="30" fill="#eeeeee" stroke="#ffffff"/><text x="396.0" y="316" text-anchor="middle" font-family="Arial" font-size="10"></text><rect x="444" y="296" width="88" height="30" fill="#eeeeee" stroke="#ffffff"/><text x="488.0" y="316" text-anchor="middle" font-family="Arial" font-size="10"></text><rect x="536" y="296" width="88" height="30" fill="#eeeeee" stroke="#ffffff"/><text x="580.0" y="316" text-anchor="middle" font-family="Arial" font-size="10"></text><rect x="628" y="296" width="88" height="30" fill="#eeeeee" stroke="#ffffff"/><text x="672.0" y="316" text-anchor="middle" font-family="Arial" font-size="10"></text><rect x="720" y="296" width="88" height="30" fill="#eeeeee" stroke="#ffffff"/><text x="764.0" y="316" text-anchor="middle" font-family="Arial" font-size="10"></text><text x="12" y="352" font-family="Arial" font-size="12">real wage tracker headline</text><rect x="260" y="330" width="88" height="30" fill="#4c78a8" stroke="#ffffff"/><text x="304.0" y="350" text-anchor="middle" font-family="Arial" font-size="10">90%</text><rect x="352" y="330" width="88" height="30" fill="#eeeeee" stroke="#ffffff"/><text x="396.0" y="350" text-anchor="middle" font-family="Arial" font-size="10"></text><rect x="444" y="330" width="88" height="30" fill="#eeeeee" stroke="#ffffff"/><text x="488.0" y="350" text-anchor="middle" font-family="Arial" font-size="10"></text><rect x="536" y="330" width="88" height="30" fill="#4c78a8" stroke="#ffffff"/><text x="580.0" y="350" text-anchor="middle" font-family="Arial" font-size="10">90%</text><rect x="628" y="330" width="88" height="30" fill="#4c78a8" stroke="#ffffff"/><text x="672.0" y="350" text-anchor="middle" font-family="Arial" font-size="10">90%</text><rect x="720" y="330" width="88" height="30" fill="#eeeeee" stroke="#ffffff"/><text x="764.0" y="350" text-anchor="middle" font-family="Arial" font-size="10"></text><text x="12" y="386" font-family="Arial" font-size="12">real wage tracker unsmoothed one-offs</text><rect x="260" y="364" width="88" height="30" fill="#eeeeee" stroke="#ffffff"/><text x="304.0" y="384" text-anchor="middle" font-family="Arial" font-size="10"></text><rect x="352" y="364" width="88" height="30" fill="#eeeeee" stroke="#ffffff"/><text x="396.0" y="384" text-anchor="middle" font-family="Arial" font-size="10"></text><rect x="444" y="364" width="88" height="30" fill="#eeeeee" stroke="#ffffff"/><text x="488.0" y="384" text-anchor="middle" font-family="Arial" font-size="10"></text><rect x="536" y="364" width="88" height="30" fill="#eeeeee" stroke="#ffffff"/><text x="580.0" y="384" text-anchor="middle" font-family="Arial" font-size="10"></text><rect x="628" y="364" width="88" height="30" fill="#eeeeee" stroke="#ffffff"/><text x="672.0" y="384" text-anchor="middle" font-family="Arial" font-size="10"></text><rect x="720" y="364" width="88" height="30" fill="#eeeeee" stroke="#ffffff"/><text x="764.0" y="384" text-anchor="middle" font-family="Arial" font-size="10"></text><text x="12" y="420" font-family="Arial" font-size="12">employment expectations</text><rect x="260" y="398" width="88" height="30" fill="#eeeeee" stroke="#ffffff"/><text x="304.0" y="418" text-anchor="middle" font-family="Arial" font-size="10"></text><rect x="352" y="398" width="88" height="30" fill="#eeeeee" stroke="#ffffff"/><text x="396.0" y="418" text-anchor="middle" font-family="Arial" font-size="10"></text><rect x="444" y="398" width="88" height="30" fill="#4c78a8" stroke="#ffffff"/><text x="488.0" y="418" text-anchor="middle" font-family="Arial" font-size="10">90%</text><rect x="536" y="398" width="88" height="30" fill="#4c78a8" stroke="#ffffff"/><text x="580.0" y="418" text-anchor="middle" font-family="Arial" font-size="10">90%</text><rect x="628" y="398" width="88" height="30" fill="#4c78a8" stroke="#ffffff"/><text x="672.0" y="418" text-anchor="middle" font-family="Arial" font-size="10">90%</text><rect x="720" y="398" width="88" height="30" fill="#eeeeee" stroke="#ffffff"/><text x="764.0" y="418" text-anchor="middle" font-family="Arial" font-size="10"></text><text x="12" y="454" font-family="Arial" font-size="12">services employment expectations</text><rect x="260" y="432" width="88" height="30" fill="#eeeeee" stroke="#ffffff"/><text x="304.0" y="452" text-anchor="middle" font-family="Arial" font-size="10"></text><rect x="352" y="432" width="88" height="30" fill="#eeeeee" stroke="#ffffff"/><text x="396.0" y="452" text-anchor="middle" font-family="Arial" font-size="10"></text><rect x="444" y="432" width="88" height="30" fill="#4c78a8" stroke="#ffffff"/><text x="488.0" y="452" text-anchor="middle" font-family="Arial" font-size="10">90%</text><rect x="536" y="432" width="88" height="30" fill="#4c78a8" stroke="#ffffff"/><text x="580.0" y="452" text-anchor="middle" font-family="Arial" font-size="10">90%</text><rect x="628" y="432" width="88" height="30" fill="#4c78a8" stroke="#ffffff"/><text x="672.0" y="452" text-anchor="middle" font-family="Arial" font-size="10">90%</text><rect x="720" y="432" width="88" height="30" fill="#eeeeee" stroke="#ffffff"/><text x="764.0" y="452" text-anchor="middle" font-family="Arial" font-size="10"></text><text x="12" y="488" font-family="Arial" font-size="12">inverse unemployment labor tightness</text><rect x="260" y="466" width="88" height="30" fill="#eeeeee" stroke="#ffffff"/><text x="304.0" y="486" text-anchor="middle" font-family="Arial" font-size="10"></text><rect x="352" y="466" width="88" height="30" fill="#eeeeee" stroke="#ffffff"/><text x="396.0" y="486" text-anchor="middle" font-family="Arial" font-size="10"></text><rect x="444" y="466" width="88" height="30" fill="#eeeeee" stroke="#ffffff"/><text x="488.0" y="486" text-anchor="middle" font-family="Arial" font-size="10"></text><rect x="536" y="466" width="88" height="30" fill="#4c78a8" stroke="#ffffff"/><text x="580.0" y="486" text-anchor="middle" font-family="Arial" font-size="10">90%</text><rect x="628" y="466" width="88" height="30" fill="#4c78a8" stroke="#ffffff"/><text x="672.0" y="486" text-anchor="middle" font-family="Arial" font-size="10">90%</text><rect x="720" y="466" width="88" height="30" fill="#4c78a8" stroke="#ffffff"/><text x="764.0" y="486" text-anchor="middle" font-family="Arial" font-size="10">90%</text><text x="12" y="522" font-family="Arial" font-size="12">German industry real wage bill growth</text><rect x="260" y="500" width="88" height="30" fill="#4c78a8" stroke="#ffffff"/><text x="304.0" y="520" text-anchor="middle" font-family="Arial" font-size="10">90%</text><rect x="352" y="500" width="88" height="30" fill="#4c78a8" stroke="#ffffff"/><text x="396.0" y="520" text-anchor="middle" font-family="Arial" font-size="10">90%</text><rect x="444" y="500" width="88" height="30" fill="#4c78a8" stroke="#ffffff"/><text x="488.0" y="520" text-anchor="middle" font-family="Arial" font-size="10">90%</text><rect x="536" y="500" width="88" height="30" fill="#4c78a8" stroke="#ffffff"/><text x="580.0" y="520" text-anchor="middle" font-family="Arial" font-size="10">90%</text><rect x="628" y="500" width="88" height="30" fill="#4c78a8" stroke="#ffffff"/><text x="672.0" y="520" text-anchor="middle" font-family="Arial" font-size="10">90%</text><rect x="720" y="500" width="88" height="30" fill="#4c78a8" stroke="#ffffff"/><text x="764.0" y="520" text-anchor="middle" font-family="Arial" font-size="10">90%</text><text x="12" y="556" font-family="Arial" font-size="12">real DAX</text><rect x="260" y="534" width="88" height="30" fill="#eeeeee" stroke="#ffffff"/><text x="304.0" y="554" text-anchor="middle" font-family="Arial" font-size="10"></text><rect x="352" y="534" width="88" height="30" fill="#eeeeee" stroke="#ffffff"/><text x="396.0" y="554" text-anchor="middle" font-family="Arial" font-size="10"></text><rect x="444" y="534" width="88" height="30" fill="#eeeeee" stroke="#ffffff"/><text x="488.0" y="554" text-anchor="middle" font-family="Arial" font-size="10"></text><rect x="536" y="534" width="88" height="30" fill="#eeeeee" stroke="#ffffff"/><text x="580.0" y="554" text-anchor="middle" font-family="Arial" font-size="10"></text><rect x="628" y="534" width="88" height="30" fill="#4c78a8" stroke="#ffffff"/><text x="672.0" y="554" text-anchor="middle" font-family="Arial" font-size="10">90%</text><rect x="720" y="534" width="88" height="30" fill="#4c78a8" stroke="#ffffff"/><text x="764.0" y="554" text-anchor="middle" font-family="Arial" font-size="10">90%</text><text x="12" y="590" font-family="Arial" font-size="12">ECB assets</text><rect x="260" y="568" width="88" height="30" fill="#eeeeee" stroke="#ffffff"/><text x="304.0" y="588" text-anchor="middle" font-family="Arial" font-size="10"></text><rect x="352" y="568" width="88" height="30" fill="#eeeeee" stroke="#ffffff"/><text x="396.0" y="588" text-anchor="middle" font-family="Arial" font-size="10"></text><rect x="444" y="568" width="88" height="30" fill="#eeeeee" stroke="#ffffff"/><text x="488.0" y="588" text-anchor="middle" font-family="Arial" font-size="10"></text><rect x="536" y="568" width="88" height="30" fill="#eeeeee" stroke="#ffffff"/><text x="580.0" y="588" text-anchor="middle" font-family="Arial" font-size="10"></text><rect x="628" y="568" width="88" height="30" fill="#eeeeee" stroke="#ffffff"/><text x="672.0" y="588" text-anchor="middle" font-family="Arial" font-size="10"></text><rect x="720" y="568" width="88" height="30" fill="#eeeeee" stroke="#ffffff"/><text x="764.0" y="588" text-anchor="middle" font-family="Arial" font-size="10"></text><text x="12" y="624" font-family="Arial" font-size="12">pure new house-purchase loans</text><rect x="260" y="602" width="88" height="30" fill="#eeeeee" stroke="#ffffff"/><text x="304.0" y="622" text-anchor="middle" font-family="Arial" font-size="10"></text><rect x="352" y="602" width="88" height="30" fill="#eeeeee" stroke="#ffffff"/><text x="396.0" y="622" text-anchor="middle" font-family="Arial" font-size="10"></text><rect x="444" y="602" width="88" height="30" fill="#eeeeee" stroke="#ffffff"/><text x="488.0" y="622" text-anchor="middle" font-family="Arial" font-size="10"></text><rect x="536" y="602" width="88" height="30" fill="#eeeeee" stroke="#ffffff"/><text x="580.0" y="622" text-anchor="middle" font-family="Arial" font-size="10"></text><rect x="628" y="602" width="88" height="30" fill="#eeeeee" stroke="#ffffff"/><text x="672.0" y="622" text-anchor="middle" font-family="Arial" font-size="10"></text><rect x="720" y="602" width="88" height="30" fill="#eeeeee" stroke="#ffffff"/><text x="764.0" y="622" text-anchor="middle" font-family="Arial" font-size="10"></text><text x="12" y="658" font-family="Arial" font-size="12">household credit</text><rect x="260" y="636" width="88" height="30" fill="#eeeeee" stroke="#ffffff"/><text x="304.0" y="656" text-anchor="middle" font-family="Arial" font-size="10"></text><rect x="352" y="636" width="88" height="30" fill="#eeeeee" stroke="#ffffff"/><text x="396.0" y="656" text-anchor="middle" font-family="Arial" font-size="10"></text><rect x="444" y="636" width="88" height="30" fill="#eeeeee" stroke="#ffffff"/><text x="488.0" y="656" text-anchor="middle" font-family="Arial" font-size="10"></text><rect x="536" y="636" width="88" height="30" fill="#eeeeee" stroke="#ffffff"/><text x="580.0" y="656" text-anchor="middle" font-family="Arial" font-size="10"></text><rect x="628" y="636" width="88" height="30" fill="#eeeeee" stroke="#ffffff"/><text x="672.0" y="656" text-anchor="middle" font-family="Arial" font-size="10"></text><rect x="720" y="636" width="88" height="30" fill="#eeeeee" stroke="#ffffff"/><text x="764.0" y="656" text-anchor="middle" font-family="Arial" font-size="10"></text><text x="12" y="692" font-family="Arial" font-size="12">NFC credit</text><rect x="260" y="670" width="88" height="30" fill="#eeeeee" stroke="#ffffff"/><text x="304.0" y="690" text-anchor="middle" font-family="Arial" font-size="10"></text><rect x="352" y="670" width="88" height="30" fill="#eeeeee" stroke="#ffffff"/><text x="396.0" y="690" text-anchor="middle" font-family="Arial" font-size="10"></text><rect x="444" y="670" width="88" height="30" fill="#eeeeee" stroke="#ffffff"/><text x="488.0" y="690" text-anchor="middle" font-family="Arial" font-size="10"></text><rect x="536" y="670" width="88" height="30" fill="#eeeeee" stroke="#ffffff"/><text x="580.0" y="690" text-anchor="middle" font-family="Arial" font-size="10"></text><rect x="628" y="670" width="88" height="30" fill="#eeeeee" stroke="#ffffff"/><text x="672.0" y="690" text-anchor="middle" font-family="Arial" font-size="10"></text><rect x="720" y="670" width="88" height="30" fill="#eeeeee" stroke="#ffffff"/><text x="764.0" y="690" text-anchor="middle" font-family="Arial" font-size="10"></text><text x="12" y="726" font-family="Arial" font-size="12">retail volume</text><rect x="260" y="704" width="88" height="30" fill="#eeeeee" stroke="#ffffff"/><text x="304.0" y="724" text-anchor="middle" font-family="Arial" font-size="10"></text><rect x="352" y="704" width="88" height="30" fill="#eeeeee" stroke="#ffffff"/><text x="396.0" y="724" text-anchor="middle" font-family="Arial" font-size="10"></text><rect x="444" y="704" width="88" height="30" fill="#eeeeee" stroke="#ffffff"/><text x="488.0" y="724" text-anchor="middle" font-family="Arial" font-size="10"></text><rect x="536" y="704" width="88" height="30" fill="#eeeeee" stroke="#ffffff"/><text x="580.0" y="724" text-anchor="middle" font-family="Arial" font-size="10"></text><rect x="628" y="704" width="88" height="30" fill="#eeeeee" stroke="#ffffff"/><text x="672.0" y="724" text-anchor="middle" font-family="Arial" font-size="10"></text><rect x="720" y="704" width="88" height="30" fill="#eeeeee" stroke="#ffffff"/><text x="764.0" y="724" text-anchor="middle" font-family="Arial" font-size="10"></text>
</svg>
