<svg xmlns="http://www.w3.org/2000/svg" width="780" height="460" viewBox="0 0 780 460">
  <rect width="100%" height="100%" fill="#ffffff"/>
  <text x="74" y="28" font-family="Arial" font-size="18" font-weight="700">employment expectations: moving-block uncertainty fan</text>
  <line x1="74" y1="48" x2="74" y2="392" stroke="#444"/>
  <line x1="74" y1="392" x2="746" y2="392" stroke="#444"/>
  <line x1="74" y1="225.6" x2="746" y2="225.6" stroke="#999" stroke-dasharray="5 5"/>
  <polygon points="74.0,166.2 102.0,71.7 158.0,107.0 242.0,118.4 410.0,119.5 746.0,218.3 746.0,368.3 410.0,290.1 242.0,255.0 158.0,227.4 102.0,176.5 74.0,218.2" fill="#bdd7ee" opacity="0.45"/>
  <polygon points="74.0,174.4 102.0,89.9 158.0,121.9 242.0,135.2 410.0,132.8 746.0,226.4 746.0,356.5 410.0,275.1 242.0,247.7 158.0,221.1 102.0,166.4 74.0,213.7" fill="#6fa8dc" opacity="0.42"/>
  <polygon points="74.0,183.5 102.0,112.1 158.0,146.8 242.0,162.7 410.0,164.6 746.0,250.5 746.0,327.8 410.0,248.0 242.0,231.2 158.0,201.6 102.0,150.5 74.0,204.0" fill="#1f6feb" opacity="0.22"/>
  <polyline points="74.0,192.4 102.0,129.2 158.0,173.1 242.0,195.2 410.0,205.8 746.0,287.5" fill="none" stroke="#174ea6" stroke-width="3"/>
  <text x="74.0" y="420" text-anchor="middle" font-size="12">0</text>
<text x="102.0" y="420" text-anchor="middle" font-size="12">1</text>
<text x="158.0" y="420" text-anchor="middle" font-size="12">3</text>
<text x="242.0" y="420" text-anchor="middle" font-size="12">6</text>
<text x="410.0" y="420" text-anchor="middle" font-size="12">12</text>
<text x="746.0" y="420" text-anchor="middle" font-size="12">24</text>
  <text x="390.0" y="446" text-anchor="middle" font-family="Arial" font-size="13">Horizon in months</text>
  <text x="18" y="230.0" transform="rotate(-90 18 230.0)" text-anchor="middle" font-family="Arial" font-size="13">Response, 1 SD shock</text>
</svg>
