<svg xmlns="http://www.w3.org/2000/svg" width="780" height="460" viewBox="0 0 780 460">
  <rect width="100%" height="100%" fill="#ffffff"/>
  <text x="74" y="28" font-family="Arial" font-size="18" font-weight="700">NFC credit: moving-block uncertainty fan</text>
  <line x1="74" y1="48" x2="74" y2="392" stroke="#444"/>
  <line x1="74" y1="392" x2="746" y2="392" stroke="#444"/>
  <line x1="74" y1="185.4" x2="746" y2="185.4" stroke="#999" stroke-dasharray="5 5"/>
  <polygon points="74.0,169.8 102.0,178.7 158.0,156.6 242.0,118.7 410.0,84.3 746.0,71.7 746.0,368.3 410.0,273.8 242.0,243.7 158.0,241.8 102.0,235.8 74.0,210.7" fill="#bdd7ee" opacity="0.45"/>
  <polygon points="74.0,173.3 102.0,183.9 158.0,164.8 242.0,127.2 410.0,104.4 746.0,99.4 746.0,347.4 410.0,262.1 242.0,231.6 158.0,236.2 102.0,232.0 74.0,205.7" fill="#6fa8dc" opacity="0.42"/>
  <polygon points="74.0,181.0 102.0,195.1 158.0,178.7 242.0,147.3 410.0,133.1 746.0,142.8 746.0,284.4 410.0,232.2 242.0,208.7 158.0,220.4 102.0,222.2 74.0,198.7" fill="#1f6feb" opacity="0.22"/>
  <polyline points="74.0,188.9 102.0,208.2 158.0,199.2 242.0,177.4 410.0,179.7 746.0,210.9" fill="none" stroke="#174ea6" stroke-width="3"/>
  <text x="74.0" y="420" text-anchor="middle" font-size="12">0</text>
<text x="102.0" y="420" text-anchor="middle" font-size="12">1</text>
<text x="158.0" y="420" text-anchor="middle" font-size="12">3</text>
<text x="242.0" y="420" text-anchor="middle" font-size="12">6</text>
<text x="410.0" y="420" text-anchor="middle" font-size="12">12</text>
<text x="746.0" y="420" text-anchor="middle" font-size="12">24</text>
  <text x="390.0" y="446" text-anchor="middle" font-family="Arial" font-size="13">Horizon in months</text>
  <text x="18" y="230.0" transform="rotate(-90 18 230.0)" text-anchor="middle" font-family="Arial" font-size="13">Response, 1 SD shock</text>
</svg>
