<svg xmlns="http://www.w3.org/2000/svg" width="780" height="460" viewBox="0 0 780 460">
  <rect width="100%" height="100%" fill="#ffffff"/>
  <text x="74" y="28" font-family="Arial" font-size="18" font-weight="700">real wage tracker excl. one-offs: moving-block uncertainty fan</text>
  <line x1="74" y1="48" x2="74" y2="392" stroke="#444"/>
  <line x1="74" y1="392" x2="746" y2="392" stroke="#444"/>
  <line x1="74" y1="269.8" x2="746" y2="269.8" stroke="#999" stroke-dasharray="5 5"/>
  <polygon points="74.0,271.8 102.0,242.5 158.0,247.6 242.0,245.2 410.0,187.4 746.0,71.7 746.0,265.4 410.0,368.3 242.0,358.1 158.0,337.5 102.0,305.1 74.0,318.3" fill="#bdd7ee" opacity="0.45"/>
  <polygon points="74.0,276.4 102.0,247.6 158.0,261.4 242.0,252.5 410.0,200.3 746.0,94.0 746.0,255.5 410.0,354.9 242.0,345.9 158.0,331.4 102.0,300.4 74.0,315.7" fill="#6fa8dc" opacity="0.42"/>
  <polygon points="74.0,282.9 102.0,259.1 158.0,278.1 242.0,271.1 410.0,235.1 746.0,133.7 746.0,229.1 410.0,333.7 242.0,327.4 158.0,315.0 102.0,291.1 74.0,305.7" fill="#1f6feb" opacity="0.22"/>
  <polyline points="74.0,293.7 102.0,273.6 158.0,293.9 242.0,297.4 410.0,281.2 746.0,178.8" fill="none" stroke="#174ea6" stroke-width="3"/>
  <text x="74.0" y="420" text-anchor="middle" font-size="12">0</text>
<text x="102.0" y="420" text-anchor="middle" font-size="12">1</text>
<text x="158.0" y="420" text-anchor="middle" font-size="12">3</text>
<text x="242.0" y="420" text-anchor="middle" font-size="12">6</text>
<text x="410.0" y="420" text-anchor="middle" font-size="12">12</text>
<text x="746.0" y="420" text-anchor="middle" font-size="12">24</text>
  <text x="390.0" y="446" text-anchor="middle" font-family="Arial" font-size="13">Horizon in months</text>
  <text x="18" y="230.0" transform="rotate(-90 18 230.0)" text-anchor="middle" font-family="Arial" font-size="13">Response, 1 SD shock</text>
</svg>
