<svg xmlns="http://www.w3.org/2000/svg" width="780" height="460" viewBox="0 0 780 460">
  <rect width="100%" height="100%" fill="#ffffff"/>
  <text x="74" y="28" font-family="Arial" font-size="18" font-weight="700">NFC lending spread: moving-block uncertainty fan</text>
  <line x1="74" y1="48" x2="74" y2="392" stroke="#444"/>
  <line x1="74" y1="392" x2="746" y2="392" stroke="#444"/>
  <line x1="74" y1="266.4" x2="746" y2="266.4" stroke="#999" stroke-dasharray="5 5"/>
  <polygon points="74.0,215.2 102.0,152.1 158.0,193.1 242.0,130.2 410.0,71.7 746.0,112.5 746.0,368.3 410.0,281.5 242.0,290.0 158.0,315.3 102.0,251.7 74.0,304.2" fill="#bdd7ee" opacity="0.45"/>
  <polygon points="74.0,226.4 102.0,156.8 158.0,199.3 242.0,140.8 410.0,87.3 746.0,127.5 746.0,341.8 410.0,259.7 242.0,274.8 158.0,304.5 102.0,246.1 74.0,298.6" fill="#6fa8dc" opacity="0.42"/>
  <polygon points="74.0,241.3 102.0,172.2 158.0,221.0 242.0,169.7 410.0,121.9 746.0,158.8 746.0,298.5 410.0,228.2 242.0,245.3 158.0,281.4 102.0,225.6 74.0,286.5" fill="#1f6feb" opacity="0.22"/>
  <polyline points="74.0,265.1 102.0,200.6 158.0,251.4 242.0,206.2 410.0,172.6 746.0,227.6" fill="none" stroke="#174ea6" stroke-width="3"/>
  <text x="74.0" y="420" text-anchor="middle" font-size="12">0</text>
<text x="102.0" y="420" text-anchor="middle" font-size="12">1</text>
<text x="158.0" y="420" text-anchor="middle" font-size="12">3</text>
<text x="242.0" y="420" text-anchor="middle" font-size="12">6</text>
<text x="410.0" y="420" text-anchor="middle" font-size="12">12</text>
<text x="746.0" y="420" text-anchor="middle" font-size="12">24</text>
  <text x="390.0" y="446" text-anchor="middle" font-family="Arial" font-size="13">Horizon in months</text>
  <text x="18" y="230.0" transform="rotate(-90 18 230.0)" text-anchor="middle" font-family="Arial" font-size="13">Response, 1 SD shock</text>
</svg>
