<svg xmlns="http://www.w3.org/2000/svg" width="780" height="460" viewBox="0 0 780 460">
  <rect width="100%" height="100%" fill="#ffffff"/>
  <text x="74" y="28" font-family="Arial" font-size="18" font-weight="700">German industry real wage bill growth: moving-block uncertainty fan</text>
  <line x1="74" y1="48" x2="74" y2="392" stroke="#444"/>
  <line x1="74" y1="392" x2="746" y2="392" stroke="#444"/>
  <line x1="74" y1="252.1" x2="746" y2="252.1" stroke="#999" stroke-dasharray="5 5"/>
  <polygon points="74.0,129.5 102.0,84.5 158.0,88.0 242.0,71.7 410.0,109.9 746.0,178.4 746.0,368.3 410.0,287.7 242.0,228.8 158.0,255.2 102.0,218.6 74.0,276.7" fill="#bdd7ee" opacity="0.45"/>
  <polygon points="74.0,140.3 102.0,96.4 158.0,106.8 242.0,83.0 410.0,127.7 746.0,196.1 746.0,348.0 410.0,277.7 242.0,219.7 158.0,237.8 102.0,210.5 74.0,265.1" fill="#6fa8dc" opacity="0.42"/>
  <polygon points="74.0,170.8 102.0,119.5 158.0,126.2 242.0,114.7 410.0,154.7 746.0,232.8 746.0,324.0 410.0,246.2 242.0,194.3 158.0,202.7 102.0,191.7 74.0,240.0" fill="#1f6feb" opacity="0.22"/>
  <polyline points="74.0,205.1 102.0,154.7 158.0,167.2 242.0,151.0 410.0,197.5 746.0,277.4" fill="none" stroke="#174ea6" stroke-width="3"/>
  <text x="74.0" y="420" text-anchor="middle" font-size="12">0</text>
<text x="102.0" y="420" text-anchor="middle" font-size="12">1</text>
<text x="158.0" y="420" text-anchor="middle" font-size="12">3</text>
<text x="242.0" y="420" text-anchor="middle" font-size="12">6</text>
<text x="410.0" y="420" text-anchor="middle" font-size="12">12</text>
<text x="746.0" y="420" text-anchor="middle" font-size="12">24</text>
  <text x="390.0" y="446" text-anchor="middle" font-family="Arial" font-size="13">Horizon in months</text>
  <text x="18" y="230.0" transform="rotate(-90 18 230.0)" text-anchor="middle" font-family="Arial" font-size="13">Response, 1 SD shock</text>
</svg>
