<svg xmlns="http://www.w3.org/2000/svg" width="780" height="460" viewBox="0 0 780 460">
  <rect width="100%" height="100%" fill="#ffffff"/>
  <text x="74" y="28" font-family="Arial" font-size="18" font-weight="700">house-purchase lending growth: moving-block uncertainty fan</text>
  <line x1="74" y1="48" x2="74" y2="392" stroke="#444"/>
  <line x1="74" y1="392" x2="746" y2="392" stroke="#444"/>
  <line x1="74" y1="193.1" x2="746" y2="193.1" stroke="#999" stroke-dasharray="5 5"/>
  <polygon points="74.0,150.6 102.0,144.8 158.0,92.8 242.0,71.7 410.0,75.2 746.0,137.8 746.0,368.3 410.0,240.8 242.0,182.4 158.0,163.6 102.0,192.5 74.0,184.4" fill="#bdd7ee" opacity="0.45"/>
  <polygon points="74.0,154.1 102.0,148.4 158.0,98.4 242.0,81.7 410.0,87.8 746.0,157.0 746.0,350.0 410.0,229.7 242.0,171.2 158.0,158.0 102.0,187.9 74.0,182.9" fill="#6fa8dc" opacity="0.42"/>
  <polygon points="74.0,161.0 102.0,154.4 158.0,110.2 242.0,95.5 410.0,114.4 746.0,187.9 746.0,305.9 410.0,196.8 242.0,151.0 158.0,146.6 102.0,179.3 74.0,177.6" fill="#1f6feb" opacity="0.22"/>
  <polyline points="74.0,168.8 102.0,166.4 158.0,126.9 242.0,123.1 410.0,155.2 746.0,256.5" fill="none" stroke="#174ea6" stroke-width="3"/>
  <text x="74.0" y="420" text-anchor="middle" font-size="12">0</text>
<text x="102.0" y="420" text-anchor="middle" font-size="12">1</text>
<text x="158.0" y="420" text-anchor="middle" font-size="12">3</text>
<text x="242.0" y="420" text-anchor="middle" font-size="12">6</text>
<text x="410.0" y="420" text-anchor="middle" font-size="12">12</text>
<text x="746.0" y="420" text-anchor="middle" font-size="12">24</text>
  <text x="390.0" y="446" text-anchor="middle" font-family="Arial" font-size="13">Horizon in months</text>
  <text x="18" y="230.0" transform="rotate(-90 18 230.0)" text-anchor="middle" font-family="Arial" font-size="13">Response, 1 SD shock</text>
</svg>
