<svg xmlns="http://www.w3.org/2000/svg" width="780" height="460" viewBox="0 0 780 460">
  <rect width="100%" height="100%" fill="#ffffff"/>
  <text x="74" y="28" font-family="Arial" font-size="18" font-weight="700">real DAX: moving-block uncertainty fan</text>
  <line x1="74" y1="48" x2="74" y2="392" stroke="#444"/>
  <line x1="74" y1="392" x2="746" y2="392" stroke="#444"/>
  <line x1="74" y1="115.7" x2="746" y2="115.7" stroke="#999" stroke-dasharray="5 5"/>
  <polygon points="74.0,87.3 102.0,71.7 158.0,84.0 242.0,78.4 410.0,126.9 746.0,134.0 746.0,368.3 410.0,315.4 242.0,227.4 158.0,204.2 102.0,171.6 74.0,154.9" fill="#bdd7ee" opacity="0.45"/>
  <polygon points="74.0,95.9 102.0,83.5 158.0,96.0 242.0,98.4 410.0,151.6 746.0,162.4 746.0,342.0 410.0,299.4 242.0,215.5 158.0,200.0 102.0,162.6 74.0,149.6" fill="#6fa8dc" opacity="0.42"/>
  <polygon points="74.0,106.8 102.0,98.8 158.0,114.1 242.0,127.3 410.0,181.8 746.0,206.8 746.0,314.0 410.0,269.2 242.0,197.8 158.0,175.2 102.0,149.3 74.0,139.8" fill="#1f6feb" opacity="0.22"/>
  <polyline points="74.0,122.9 102.0,124.9 158.0,147.0 242.0,160.2 410.0,227.0 746.0,257.0" fill="none" stroke="#174ea6" stroke-width="3"/>
  <text x="74.0" y="420" text-anchor="middle" font-size="12">0</text>
<text x="102.0" y="420" text-anchor="middle" font-size="12">1</text>
<text x="158.0" y="420" text-anchor="middle" font-size="12">3</text>
<text x="242.0" y="420" text-anchor="middle" font-size="12">6</text>
<text x="410.0" y="420" text-anchor="middle" font-size="12">12</text>
<text x="746.0" y="420" text-anchor="middle" font-size="12">24</text>
  <text x="390.0" y="446" text-anchor="middle" font-family="Arial" font-size="13">Horizon in months</text>
  <text x="18" y="230.0" transform="rotate(-90 18 230.0)" text-anchor="middle" font-family="Arial" font-size="13">Response, 1 SD shock</text>
</svg>
